REM DIRINDEX 1\2,1\3,1\4,1\5,1\6
REM DIRNAME cjc030,folder01,folder02,folder03,folder04,folder05
TITLE ""
FILE "Disc5Track19.mp3" MP3
  TRACK 01 AUDIO
    TITLE "3:cjc030_08765"
    INDEX 01 00:00:00
  TRACK 02 AUDIO
    TITLE "0:"
    INDEX 01 00:01:05
  TRACK 03 AUDIO
    TITLE "4:cjc030_08766"
    INDEX 01 00:01:11
  TRACK 04 AUDIO
    TITLE "0:"
    INDEX 01 00:02:32
  TRACK 05 AUDIO
    TITLE "5:cjc030_08767"
    INDEX 01 00:02:40
  TRACK 06 AUDIO
    TITLE "0:"
    INDEX 01 00:03:49
  TRACK 07 AUDIO
    TITLE "6:cjc030_08768"
    INDEX 01 00:03:63
  TRACK 08 AUDIO
    TITLE "0:"
    INDEX 01 00:07:52
  TRACK 09 AUDIO
    TITLE "3:cjc030_08769"
    INDEX 01 00:08:26
  TRACK 10 AUDIO
    TITLE "0:"
    INDEX 01 00:09:45
  TRACK 11 AUDIO
    TITLE "4:cjc030_08770"
    INDEX 01 00:09:53
  TRACK 12 AUDIO
    TITLE "0:"
    INDEX 01 00:10:55
  TRACK 13 AUDIO
    TITLE "5:cjc030_08771"
    INDEX 01 00:10:65
  TRACK 14 AUDIO
    TITLE "0:"
    INDEX 01 00:12:05
  TRACK 15 AUDIO
    TITLE "3:cjc030_08772"
    INDEX 01 00:12:60
  TRACK 16 AUDIO
    TITLE "0:"
    INDEX 01 00:13:69
  TRACK 17 AUDIO
    TITLE "4:cjc030_08773"
    INDEX 01 00:14:02
  TRACK 18 AUDIO
    TITLE "0:"
    INDEX 01 00:15:15
  TRACK 19 AUDIO
    TITLE "5:cjc030_08774"
    INDEX 01 00:15:25
  TRACK 20 AUDIO
    TITLE "0:"
    INDEX 01 00:16:32
  TRACK 21 AUDIO
    TITLE "6:cjc030_08775"
    INDEX 01 00:16:48
  TRACK 22 AUDIO
    TITLE "0:"
    INDEX 01 00:18:56
  TRACK 23 AUDIO
    TITLE "3:cjc030_08776"
    INDEX 01 00:19:32
  TRACK 24 AUDIO
    TITLE "0:"
    INDEX 01 00:20:30
  TRACK 25 AUDIO
    TITLE "4:cjc030_08777"
    INDEX 01 00:20:37
  TRACK 26 AUDIO
    TITLE "0:"
    INDEX 01 00:22:05
  TRACK 27 AUDIO
    TITLE "5:cjc030_08778"
    INDEX 01 00:22:13
  TRACK 28 AUDIO
    TITLE "0:"
    INDEX 01 00:23:10
  TRACK 29 AUDIO
    TITLE "6:cjc030_08779"
    INDEX 01 00:23:28
  TRACK 30 AUDIO
    TITLE "0:"
    INDEX 01 00:26:46
  TRACK 31 AUDIO
    TITLE "3:cjc030_08780"
    INDEX 01 00:27:24
  TRACK 32 AUDIO
    TITLE "0:"
    INDEX 01 00:28:45
  TRACK 33 AUDIO
    TITLE "4:cjc030_08781"
    INDEX 01 00:28:55
  TRACK 34 AUDIO
    TITLE "0:"
    INDEX 01 00:31:73
  TRACK 35 AUDIO
    TITLE "5:cjc030_08782"
    INDEX 01 00:32:05
  TRACK 36 AUDIO
    TITLE "0:"
    INDEX 01 00:33:26
  TRACK 37 AUDIO
    TITLE "6:cjc030_08783"
    INDEX 01 00:33:40
  TRACK 38 AUDIO
    TITLE "0:"
    INDEX 01 00:37:16
  TRACK 39 AUDIO
    TITLE "3:cjc030_08784"
    INDEX 01 00:37:69
  TRACK 40 AUDIO
    TITLE "0:"
    INDEX 01 00:39:15
  TRACK 41 AUDIO
    TITLE "4:cjc030_08785"
    INDEX 01 00:39:19
  TRACK 42 AUDIO
    TITLE "0:"
    INDEX 01 00:41:06
  TRACK 43 AUDIO
    TITLE "5:cjc030_08786"
    INDEX 01 00:41:14
  TRACK 44 AUDIO
    TITLE "0:"
    INDEX 01 00:42:31
  TRACK 45 AUDIO
    TITLE "6:cjc030_08787"
    INDEX 01 00:42:49
  TRACK 46 AUDIO
    TITLE "0:"
    INDEX 01 00:47:74
  TRACK 47 AUDIO
    TITLE "3:cjc030_08788"
    INDEX 01 00:48:49
  TRACK 48 AUDIO
    TITLE "0:"
    INDEX 01 00:49:69
  TRACK 49 AUDIO
    TITLE "4:cjc030_08789"
    INDEX 01 00:50:01
  TRACK 50 AUDIO
    TITLE "0:"
    INDEX 01 00:51:05
  TRACK 51 AUDIO
    TITLE "5:cjc030_08790"
    INDEX 01 00:51:15
  TRACK 52 AUDIO
    TITLE "0:"
    INDEX 01 00:52:34
  TRACK 53 AUDIO
    TITLE "6:cjc030_08791"
    INDEX 01 00:52:49
  TRACK 54 AUDIO
    TITLE "0:"
    INDEX 01 00:54:52
  TRACK 55 AUDIO
    TITLE "3:cjc030_08792"
    INDEX 01 00:55:24
  TRACK 56 AUDIO
    TITLE "0:"
    INDEX 01 00:56:31
  TRACK 57 AUDIO
    TITLE "4:cjc030_08793"
    INDEX 01 00:56:37
  TRACK 58 AUDIO
    TITLE "0:"
    INDEX 01 00:58:54
  TRACK 59 AUDIO
    TITLE "5:cjc030_08794"
    INDEX 01 00:58:64
  TRACK 60 AUDIO
    TITLE "0:"
    INDEX 01 00:59:67
  TRACK 61 AUDIO
    TITLE "3:cjc030_08795"
    INDEX 01 01:00:49
  TRACK 62 AUDIO
    TITLE "0:"
    INDEX 01 01:01:66
  TRACK 63 AUDIO
    TITLE "4:cjc030_08796"
    INDEX 01 01:01:74
  TRACK 64 AUDIO
    TITLE "0:"
    INDEX 01 01:04:60
  TRACK 65 AUDIO
    TITLE "5:cjc030_08797"
    INDEX 01 01:04:70
  TRACK 66 AUDIO
    TITLE "0:"
    INDEX 01 01:06:10
  TRACK 67 AUDIO
    TITLE "6:cjc030_08798"
    INDEX 01 01:06:26
  TRACK 68 AUDIO
    TITLE "0:"
    INDEX 01 01:10:16
